# xmcd
#
# Track frame offsets:
# 150
# 30058
# 51554
# 76961
# 91836
# 111636
# 130477
# 149055
# 165903
# 186181
# 203676
# 225101
# 252694
# 273605
# 289714
# 307577
#
# Disc length: 4311 seconds
#
#
# Revision: 0
# Processed by: cddbd v1.5.1PL2 Copyright (c) Steve Scherf et al.
# Submitted via: FreeRIP 2.944 
#
DISCID=dc10d510
DTITLE=Elton Saldanha Ao Vivo em Vacaria - Elton Saldanha
DYEAR=2006
DGENRE=Gaúcha
TTITLE0=Eu Sou do Sul
TTITLE1=Todo Mundo Veio Pro Rodeio
TTITLE2=A Primeira vez
TTITLE3=Os "Loco" do Caticoco
TTITLE4=Entrando no M'Bororé
TTITLE5=Castelhana
TTITLE6=Os Cardeais
TTITLE7=Merceditas
TTITLE8=Pé Na Estrada
TTITLE9=O Sulé o Meu País
TTITLE10=Baile das Negra Touro
TTITLE11=Perdido Num Baile de Fronteira
TTITLE12=Bailanta do Tio Flor
TTITLE13=Amigo
TTITLE14=Canta Catarina
TTITLE15=Rodeio da Vida
EXTD=
EXTT0=
EXTT1=
EXTT2=
EXTT3=
EXTT4=
EXTT5=
EXTT6=
EXTT7=
EXTT8=
EXTT9=
EXTT10=
EXTT11=
EXTT12=
EXTT13=
EXTT14=
EXTT15=
PLAYORDER=
